<?xml version="1.0" encoding="utf-8"?>
<svg viewBox="-265.196 83.186 790.477 584.829" xmlns="http://www.w3.org/2000/svg">
  <defs>
    <clipPath id="clippath">
      <path class="cls-1" d="M910.72,750.62s60.99-8.24,100.05-6.18-6.16,43.75-6.16,43.75l-79.2-15.42-14.69-22.15Z" style="fill: none;"/>
    </clipPath>
  </defs>
  <g id="Calque_5" transform="matrix(1, 0, 0, 1, -730.755673, -431.098427)">
    <circle class="cls-3" cx="945.44" cy="643.6" r="86.47" style="fill: none; stroke: rgb(7, 31, 50); stroke-miterlimit: 10; stroke-width: 2px;"/>
  </g>
  <g id="Calque_6" transform="matrix(1, 0, 0, 1, -730.755673, -431.098427)">
    <path class="cls-8" d="M859.72,633.19c1.33-.65,18.95-6.19,31.2-4.76,0,0-1.41-9.76,7.4-19.2-3.69,11.2,.27,13.93,.77,18.45l32.28,.12s5.58-9.14,4.7-17.57c0,0,4.78,3.38,4.91,17.87,0,0,18.14-4.55,35.42-.45s9.88-21.43,9.88-21.43l-1.74-24.06-26.33-16.36-32.75-4.72-27.28,10.1-22,16.89-14.71,25.54-1.87,19.49c0,.06,.06,.11,.11,.08Z" style="fill: rgb(7, 31, 50);"/>
    <path class="cls-8" d="M969.05,557.13s54.59-77.13,124.12-3.42c0,0-63.23,65.89-124.12,3.42Z" style="fill: rgb(7, 31, 50);"/>
  </g>
  <g id="Calque_4" transform="matrix(1, 0, 0, 1, -730.755673, -431.098427)">
    <path class="cls-9" d="M857.68,613.62s21.45-64.26,94.28-59.68,78.46,66.49,78.46,66.49l-45.87-14.78s-10.36-42.62-63.84-38.93c-43.14,2.97-58.44,49.6-58.44,49.6l-4.58-2.7" style="fill: rgb(53, 75, 207);"/>
    <rect class="cls-10" x="974.41" y="606.05" width="60.38" height="84.07" rx="12" ry="12" transform="translate(34.72 -50.89) rotate(2.95)" style="fill: rgb(53, 75, 207); stroke: rgb(16, 32, 50); stroke-miterlimit: 10;"/>
  </g>
  <g id="Calque_10" transform="matrix(1, 0, 0, 1, -730.755673, -431.098427)">
    <path class="cls-2" d="M945.44,746.9s-80.08,8.64-116.92,32.08-163.26,202.6-163.26,202.6l159.82,34.67,26.97-54.48" style="fill: none; stroke: rgb(16, 32, 50); stroke-miterlimit: 10; stroke-width: 2px;"/>
    <path class="cls-2" d="M847.58,912.1s9.41,82.88,5.22,115.53" style="fill: none; stroke: rgb(16, 32, 50); stroke-miterlimit: 10; stroke-width: 2px;"/>
    <path class="cls-2" d="M991.07,744.85s110.11-3.58,131.32,13.05c19.31,15.14,97.85,158.08,129.45,261.06,8.48,27.65-5.31,57.33-32.1,68.25-14.92,6.08-35.35,10.55-63.3,11.03-96,1.67-171.35,5.02-195.91-15.63v-39.63s9.38-13.31,39.07-20.09c29.02-6.63,106.8-10.94,141.21-32.93" style="fill: none; stroke: rgb(16, 32, 50); stroke-miterlimit: 10; stroke-width: 2px;"/>
    <path class="cls-2" d="M1048.15,891.73s7.26,50.79,26.23,78.14,20.73,36.98,20.73,36.98" style="fill: none; stroke: rgb(16, 32, 50); stroke-miterlimit: 10; stroke-width: 2px;"/>
    <path class="cls-2" d="M1125.55,978.24s-23.33,17.43-28.5,28.15" style="fill: none; stroke: rgb(16, 32, 50); stroke-miterlimit: 10; stroke-width: 2px;"/>
    <rect class="cls-7" x="946.36" y="1040.57" width="14.44" height="42.79" rx="4.12" ry="4.12" style="fill: rgb(16, 32, 50);"/>
    <path class="cls-2" d="M953.58,1043.55s-61.42-49.12-118.36-4.74" style="fill: none; stroke: rgb(16, 32, 50); stroke-miterlimit: 10; stroke-width: 2px;"/>
  </g>
  <g id="Calque_2" transform="matrix(1, 0, 0, 1, -730.755673, -431.098427)">
    <rect class="cls-10" x="824.09" y="1074.24" width="121.35" height="24" rx="8.12" ry="8.12" style="fill: rgb(53, 75, 207); stroke: rgb(16, 32, 50); stroke-miterlimit: 10;"/>
    <path class="cls-10" d="M857.85,643.6c0-9.93,1.7-19.47,4.78-28.35-1.16-1.09-2.74-1.73-4.45-1.63l-4.94,.29c-3.29,.19-5.83,3.04-5.64,6.33l3.59,62.29c.19,3.29,3.04,5.83,6.33,5.64l4.94-.29c2.49-.14,4.55-1.81,5.32-4.04-6.33-12.02-9.93-25.71-9.93-40.24Z" style="fill: rgb(53, 75, 207); stroke: rgb(16, 32, 50); stroke-miterlimit: 10;"/>
    <path class="cls-10" d="M835.58,1098.24h-298.6c-6.6,0-12-5.4-12-12l-55.34-240.28c0-6.6,5.4-12,12-12h291.35c6.6,0,12,5.4,12,12l62.59,240.28c0,6.6-5.4,12-12,12Z" style="fill: rgb(53, 75, 207); stroke: rgb(16, 32, 50); stroke-miterlimit: 10;"/>
  </g>
  <g id="Calque_3" transform="matrix(1, 0, 0, 1, -730.755673, -431.098427)">
    <path class="cls-3" d="M942.44,731.23s2.76,27.32,11.14,26.65c6.48-.52,24.7-5.59,32.6-7.86,2.45-.7,4.34-2.68,4.9-5.17,1.15-5.16,2.32-14.82-.8-26.76" style="fill: none; stroke: rgb(7, 31, 50); stroke-miterlimit: 10; stroke-width: 2px;"/>
    <path class="cls-3" d="M858.97,643.6c0-14.32,3.46-28.13,9.51-39.96,10.53-20.57,31.02-36.94,54.12-37.73,13.05-.45,18.29,.45,28.3,3.65,14.11,4.52,22.85,16.14,25.5,19.67,3.31,4.4,6.24,9.85,8.13,16.42" style="fill: none; stroke: rgb(7, 31, 50); stroke-miterlimit: 10; stroke-width: 2px;"/>
  </g>
  <g id="Calque_7" transform="matrix(1, 0, 0, 1, -730.755673, -431.098427)">
    <path class="cls-8" d="M892.35,691.25c5.23-3.56,19.59-9.81,35.67-3.16,1.48,.61,2.45,2.06,2.48,3.67,.09,5.13-1.28,16.1-14.45,17.69-15.73,1.9-20.85-5.95-24.81-14.05-.72-1.46-.25-3.23,1.1-4.15Z" style="fill: rgb(7, 31, 50);"/>
    <path class="cls-6" d="M899.09,688.67s10.85,8.37,25.08-1.27c0,0-4.94-2.63-14.85-1.37-7.3,.93-10.23,2.64-10.23,2.64Z" style="fill: rgb(255, 255, 255);"/>
    <path class="cls-6" d="M929.61,695.22s-19.94,1.62-15.92,13.89c0,0,12.43,.63,15.92-13.89Z" style="fill: rgb(255, 255, 255);"/>
    <path class="cls-3" d="M930.33,679.78s-4.78,11.06,4.15,19.67" style="fill: none; stroke: rgb(7, 31, 50); stroke-miterlimit: 10; stroke-width: 2px;"/>
  </g>
  <g id="Calque_8" transform="matrix(1, 0, 0, 1, -730.755673, -431.098427)">
    <path class="cls-8" d="M867.31,604.55c-8.18,15.2-14.48,21.7-17.16,24.43-5.44,5.54,.25,6.13,3.38,5.48l5.25-1.09c.61-.13,1.17-.41,1.63-.83l15.31-14.09c1-.92,1.36-2.34,.92-3.62l-3.22-9.5c-.92-2.71-4.76-3.29-6.11-.77Z" style="fill: rgb(7, 31, 50);"/>
    <path class="cls-8" d="M970.8,594.04c3.67-3.35,3.96-10,11.12,2.91,6.59,11.88,20.93,30.79,16.28,33.86,0,0-9.83-1.54-21.79-3.15s-14.49-16.1-14.49-16.1l8.88-17.51Z" style="fill: rgb(7, 31, 50);"/>
  </g>
  <g id="Calque_9" transform="matrix(1, 0, 0, 1, -730.755673, -431.098427)">
    <ellipse class="cls-8" cx="925.4" cy="662.15" rx="3.65" ry="5.95" style="fill: rgb(7, 31, 50);"/>
    <ellipse class="cls-8" cx="894.77" cy="662.15" rx="3.65" ry="5.95" style="fill: rgb(7, 31, 50);"/>
    <path class="cls-4" d="M905.08,673.31s-4.24,.21,0,6.47" style="fill: none; stroke: rgb(7, 31, 50); stroke-miterlimit: 10;"/>
  </g>
  <g id="Calque_11" transform="matrix(1, 0, 0, 1, -730.755673, -431.098427)">
    <g class="cls-5" style="clip-path: url(#clippath);">
      <path class="cls-7" d="M992.27,732.94c0,4.17-.6,7.56-1.2,9.88-.56,2.14-2.44,3.85-4.9,4.45-7.9,1.95-26.11,6.32-32.6,6.76-6.46,.44-9.58-13.43-10.67-19.81-8.15,3.92-13.29,9.64-13.29,16.02,0,11.82,6.72,35.44,43.56,25.02,26.33-7.45,34.3-18.86,35.35-25.02,1.19-7.02-6.41-13.42-16.26-17.31Z" style="fill: rgb(16, 32, 50);"/>
    </g>
    <path id="Tracé_87" class="cls-6" d="M665.05,969.51c-.22,0-.22,.22-.44,.66-4.4,9.57-12.42,13.86-20.67,14.07-16.6,.22-20.78-13.63-20.78-14.07l8.47,1.54s3.3,7.59,11.87,7.59c9.12,0,15.61-9.12,15.61-18.58,0-8.46-3.63-13.41-8.68-17.15l-23.31,10.88c-.22,0-.22,.44,0,.44,12.97,3.08,15.17,12.31,14.51,17.59,0,.88,.44,.66,.88-.88,2.06-6.53-.63-13.62-6.49-17.15l12.97-6.6c1.54,1.32,6.71,4.51,6.71,12.75s-4.73,15.61-11.87,15.61-9.79-7.37-9.79-7.37l-15.39-3.3c-.24,.02-.42,.2-.44,.44,1.29,12.39,11.84,21.75,24.3,21.55,11.21,0,19.02-6.27,22.32-14.95,.66-2.42,.44-3.08,.22-3.08" style="fill: rgb(255, 255, 255);"/>
  </g>
</svg>